<?xml version="1.0" encoding="utf-8"?>
<!-- Generator: Adobe Illustrator 22.0.0, SVG Export Plug-In . SVG Version: 6.00 Build 0)  -->
<svg version="1.1" id="Layer_1" xmlns="http://www.w3.org/2000/svg" xmlns:xlink="http://www.w3.org/1999/xlink" x="0px" y="0px"
	 viewBox="0 0 588.9 189" style="enable-background:new 0 0 588.9 189;" xml:space="preserve">
<style type="text/css">
	.st0{font-family:'ArialMT';}
	.st1{font-size:82.6545px;}
	.st2{font-size:93.0842px;}
	.st3{fill:#FFFFFF;}
	.st4{fill:#91D5FF;}
	.st5{fill:#40A9FF;}
</style>
<title>modmenuonlineLogo</title>
<text transform="matrix(0.7099 0 0 1 178.999 87.3687)" class="st0 st1">Stardew Valley</text>
<text transform="matrix(1.354 0 0 1 223 169.3662)" class="st0 st2">Mods</text>
<path class="st3" d="M16.1,57.6l-0.3,0.1V129l69.8,36.7V92.4L16.1,57.6z"/>
<path class="st3" d="M29.6,68.8l-0.2,0.1v64.6l62,33.3v-66.6L29.6,68.8z"/>
<path class="st4" d="M156.4,68.1L92.8,35.6l-61,31.2l-2.5,1.3l63.4,30.8l0.7-0.3l63-30.3v-0.1L156.4,68.1L156.4,68.1z M93.6,98.5
	l-0.7,0.3L93.6,98.5L93.6,98.5z"/>
<path class="st5" d="M168.1,62.2c-1-2-2.5-3.6-4.5-4.7L97,22.5c-3-1.6-6.7-1.6-9.7,0L20.7,57.3c-1.1,0.6-2,1.5-2.7,2.4
	c-0.7,0.7-1.2,1.4-1.7,2.2c-0.7,1.4-1.1,3-1.1,4.5v67.9c0,3.9,2.2,7.4,5.7,9.2l66.6,34.7c1.4,0.8,3.1,1.3,4.7,1.4h0.8
	c1.4-0.1,2.8-0.4,4.1-1.1l66.6-34.7c3.5-1.8,5.7-5.3,5.7-9.2V66.4C169.2,64.9,168.8,63.5,168.1,62.2L168.1,62.2z M155.6,68.3
	L92.9,99.1l-0.7,0.4v66l-63.5-33.1V68.3l2.5-1.3l61-31.8l63.3,33L155.6,68.3z"/>
</svg>
