<svg id="Layer_1" data-name="Layer 1" xmlns="http://www.w3.org/2000/svg" viewBox="0 0 720.01 720.01"><title>prospector</title><path d="M614.56,105.44A359.76,359.76,0,0,0,0,360a361.69,361.69,0,0,0,10.13,85.36q4.11,17,9.85,33.48a355.34,355.34,0,0,0,31.56,67q8.58,14.18,18.52,27.62a364.59,364.59,0,0,0,35.39,41.06A357.63,357.63,0,0,0,360,720a368.31,368.31,0,0,0,45.46-2.82,360.05,360.05,0,0,0,209.1-611.74Zm33,413.53c-33.86-39.52-76.24-75.47-126.16-107C443.59,362.86,371,339.13,349.09,332.62l-4.32-25.27,16.61-16.19c28,8.09,132.07,40.68,234.44,106.1a703.89,703.89,0,0,1,78.74,58A324.61,324.61,0,0,1,647.59,519ZM313.87,312.65l1.12,6.49,6.55,38.23L315,353.92l-33.61-17.66-14.59-7.68-14.58,7.68-40.15,21.11,7.66-44.72,2.79-16.25-11.8-11.51-32.49-31.66,44.89-6.52,16.31-2.36,7.29-14.79,20.08-40.68,20.08,40.68,7.3,14.79,16.3,2.36,44.91,6.52L352.5,256l-29.61,28.85-7.9,7.7-3.91,3.81Zm298.83,58.2c-91.24-58.32-181.76-90.94-225.64-104.72L397.42,256l25.33-24.69L315,215.69l-48.2-97.64-48.18,97.64L110.85,231.35l78,76L170.41,414.67,266.79,364,315,389.34l48.18,25.33-8.09-47.19c30.08,10.11,89.11,32.71,150.34,71.49q76.23,48.24,124.88,107.77c-51.18,73.89-131.85,125.85-224.84,138.78A329.3,329.3,0,0,1,360,688.65c-111.78,0-210.72-56.09-270.1-141.61q-9.34-13.41-17.32-27.74A328.54,328.54,0,0,1,48.2,256C91.79,125.6,215.1,31.34,360,31.34c181.22,0,328.65,147.44,328.65,328.66a329.57,329.57,0,0,1-5.78,61.57A735.89,735.89,0,0,0,612.7,370.85Z" transform="translate(0.01 0.01)"/></svg>