<?xml version="1.0" standalone="no"?><!DOCTYPE svg PUBLIC "-//W3C//DTD SVG 1.1//EN" "http://www.w3.org/Graphics/SVG/1.1/DTD/svg11.dtd"><svg t="1581047892535" class="icon" viewBox="0 0 1024 1024" version="1.1" xmlns="http://www.w3.org/2000/svg" p-id="1707" xmlns:xlink="http://www.w3.org/1999/xlink" width="200" height="200"><defs><style type="text/css"></style></defs><path d="M512 907.5078125C293.56668505 907.5078125 116.4921875 730.43331495 116.4921875 512S293.56668505 116.4921875 512 116.4921875 907.5078125 293.56668505 907.5078125 512 730.43331495 907.5078125 512 907.5078125z m0-37.6674109a357.8404016 357.8404016 0 1 0 0-715.6808032 357.8404016 357.8404016 0 0 0 0 715.6808032z m16.76199806-440.48270067c-17.32700878-12.88225413-19.17271242-41.28348244-4.14341554-63.43191993 15.06696435-22.33677492 41.35881664-30.02092628 58.68582617-17.32700879 17.32700878 12.80691994 19.17271242 41.28348244 4.14341478 63.5072549-15.06696435 22.22377247-41.35881664 30.02092628-58.68582541 17.25167382z m26.36718725 243.78348244l35.44503319-21.05608278 13.93694215 9.7935266s-27.04520119 17.89202028-50.39899509 30.88727687c-17.70368285 9.90652906-33.26032372 16.57366065-33.26032375 16.57366063s-57.93247806 18.72070338-58.94949781-12.80691994c-1.05468725-31.56529003 33.29799122-109.12248878 54.65541233-161.70619408 21.35742188-52.65904028-63.28125 10.50920726-63.28125 10.50920802l-14.91629442-9.04017844a264.12388378 264.12388378 0 0 1 50.36132837-33.10965458c19.09737745-9.71819163 42.22516722-18.26869434 61.09653978-20.30273386 43.6941968-4.78376123 33.22265625 20.34040211 33.22265625 20.34040135-19.88839308 49.72098192-36.16071461 87.08705372-46.10491038 113.52957593-12.43024586 33.07198631-16.08398412 48.85463133-16.08398412 48.8546321-11.30022289 36.08537965 34.2773435 7.53348218 34.2773435 7.53348218z" p-id="1708"></path></svg>