<?xml version="1.0" encoding="utf-8"?>
<svg viewBox="0 0 450 450" style="enable-background:new 0 0 600 450;" xmlns="http://www.w3.org/2000/svg">
  <defs>
    <style type="text/css">
	.st0{fill:#20B573;}
	.st1{fill:#FFFFFF;}
	.st2{fill-rule:evenodd;clip-rule:evenodd;fill:#6989AF;}
	.st3{fill:#6989AF;}
	.st4{fill:#CB8185;}
</style>
  </defs>
  <g transform="matrix(1.687025, 0, 0, 1.687025, -272.519196, -86.575722)" style="">
    <path class="st2" d="M214.92,130.71c-9.05-4.06-19.68-3.71-28.6,1.36c6.71-1.68,13.74-1.36,20.24,0.84 c-11.29,2.38-20.2,11.05-22.93,22.23c5.35-9.86,15.35-16.11,26.29-16.81c-30.13,10.66-22.79,66.91-7.45,87.39 c-1.61-24.89,19.65-33.14,25.34-53.49c-5.87-9.37-9.3-20.2-9.79-31.46c7.38,26.04,31.01,41.91,58.34,47.33 c-11.5-7.45-21.53-17.2-29.36-28.87c34.71,33.73,99.28,38,128.47-4.61c-1.68,6.22-4.26,12.16-7.65,17.62 c6.22,22.2,27.02,27.51,25.34,53.49c26.32-35.2,6.99-83.86-7.59-91.03c4.79-13.74,6.08-28.74,3.32-43.52 c-1.4,6.92-4.96,13.21-10.17,17.97c5.59-15.38,3.56-32.48-5.45-46.14c-17.3,33.14-55.86,47.51-90.09,38.28 c18.35,0.98,36.36-3.74,51.67-13.22C290.05,95.2,230.48,66.46,214.92,130.71L214.92,130.71z"/>
    <path class="st2" d="M313.27,228.62c-10.26,2.77-26.43,2.77-36.69,0c-9.84-2.67-19.25-6.17-29.03-8.92 c-9.17-2.58-19.43-4.57-28.84-1.6c-8.14,2.57-13.91,8.12-16.92,14.77c-3.96,8.81-3.01,18.89-0.45,27.87 c4.91,17.18,17.78,41.91,41.59,45.24c10.78,1.5,21.52-1.64,31.65-4.29c17.63-4.63,23.05-4.63,40.67,0 c10.13,2.65,20.88,5.79,31.66,4.29c23.79-3.33,36.66-28.06,41.58-45.24c2.57-8.98,3.52-19.07-0.45-27.87 c-3.01-6.66-8.78-12.21-16.92-14.77c-9.41-2.97-19.67-0.98-28.84,1.6C332.52,222.46,323.11,225.96,313.27,228.62L313.27,228.62z M336.08,285.19c-11.5,0-20.81-9.32-20.81-20.81c0-11.5,9.31-20.81,20.81-20.81c11.49,0,20.81,9.31,20.81,20.81 C356.89,275.87,347.57,285.19,336.08,285.19L336.08,285.19z M336.08,278.43L336.08,278.43c-2.06,0-3.75-1.69-3.75-3.75v-6.56 h-6.57c-2.05,0-3.73-1.69-3.73-3.75l0,0c0-2.06,1.69-3.75,3.73-3.75h6.57v-6.56c0-2.06,1.69-3.75,3.75-3.75l0,0 c2.06,0,3.75,1.69,3.75,3.75v6.56h6.56c2.06,0,3.75,1.69,3.75,3.75l0,0c0,2.06-1.69,3.75-3.75,3.75h-6.56v6.56 C339.83,276.75,338.14,278.43,336.08,278.43L336.08,278.43z M260.47,250.95c0,3.69-3,6.69-6.69,6.69c-3.7,0-6.69-3-6.69-6.69 c0-3.7,2.98-6.69,6.69-6.69C257.48,244.26,260.47,247.25,260.47,250.95L260.47,250.95z M239.63,271.77 c-3.69,0-6.69-2.98-6.69-6.69c0-3.69,3-6.69,6.69-6.69c3.7,0,6.7,3,6.7,6.69C246.34,268.79,243.34,271.77,239.63,271.77 L239.63,271.77z M260.47,279.23c0,3.7-3,6.7-6.69,6.7c-3.7,0-6.69-3-6.69-6.7c0-3.69,2.98-6.69,6.69-6.69 C257.48,272.54,260.47,275.54,260.47,279.23L260.47,279.23z M267.93,271.77c-3.69,0-6.69-2.98-6.69-6.69c0-3.69,3-6.69,6.69-6.69 c3.7,0,6.69,3,6.69,6.69C274.61,268.79,271.63,271.77,267.93,271.77L267.93,271.77z"/>
  </g>
</svg>