<svg id="Layer_1" data-name="Layer 1" xmlns="http://www.w3.org/2000/svg" viewBox="0 0 32 32"><defs><style>.cls-1{fill-rule:evenodd;}</style></defs><title>Artboard 3</title><path class="cls-1" d="M16,1.13a15.25,15.25,0,0,0-4.82,29.72c.76.14,1-.33,1-.74s0-1.32,0-2.59c-4.24.92-5.14-2.05-5.14-2.05a4,4,0,0,0-1.69-2.23c-1.39-.94.1-.92.1-.92a3.19,3.19,0,0,1,2.34,1.57,3.25,3.25,0,0,0,4.44,1.27,3.23,3.23,0,0,1,1-2c-3.39-.39-7-1.7-7-7.54a5.85,5.85,0,0,1,1.57-4.09,5.48,5.48,0,0,1,.15-4S9.27,7,12.18,9A15.17,15.17,0,0,1,16,8.5,15.17,15.17,0,0,1,19.82,9C22.73,7,24,7.45,24,7.45a5.48,5.48,0,0,1,.15,4,5.85,5.85,0,0,1,1.57,4.09c0,5.86-3.57,7.15-7,7.52a3.67,3.67,0,0,1,1,2.83c0,2,0,3.68,0,4.18s.28.88,1,.74A15.25,15.25,0,0,0,16,1.13Z"/></svg>