<svg xmlns="http://www.w3.org/2000/svg" viewBox="0 0 190.56996 74.9942">
  <defs>
    <style>
      .a, .b, .c, .d, .e, .f, .g, .h, .i, .j, .k, .l, .m, .n, .o, .p, .q, .r, .s, .t, .u {
        fill: #010101;
      }

      .a {
        stroke: #013528;
      }

      .b {
        stroke: #8cc63f;
      }

      .c {
        stroke: #2aa649;
      }

      .d {
        stroke: #0f1420;
      }

      .e {
        stroke: #5f3d16;
      }

      .f {
        stroke: #2b1220;
      }

      .g {
        stroke: #4063ae;
      }

      .h {
        stroke: #884d20;
      }

      .i {
        stroke: #6a9cd3;
      }

      .j {
        stroke: #225f30;
      }

      .k {
        stroke: #3d1d56;
      }

      .l {
        stroke: #562a75;
      }

      .m {
        stroke: #271135;
      }

      .n {
        stroke: #8359a5;
      }

      .o {
        stroke: #a88cc1;
      }

      .p {
        stroke: #b7abd4;
      }

      .q {
        stroke: #161616;
      }

      .r {
        stroke: #4f5e83;
      }

      .s {
        stroke: #8cafb3;
      }

      .t {
        stroke: #6e7ea7;
      }

      .u {
        stroke: #b4deca;
      }
    </style>
  </defs>
  <g>
    <path class="a" d="M68.62434,26.75687h12m9,0h6m-27,1h12m9,0h6m-27,1h12m9,0h6m-24,1h3m6,0h3m3,0h3m3,0h3m-24,1h3m6,0h3m3,0h3m3,0h3m-24,1h3m6,0h3m3,0h3m3,0h3m-24,1h3m9,0h3m3,0h3m-21,1h3m9,0h3m3,0h3m-21,1h3m9,0h3m3,0h3m-18,1h3m-3,1h3m-3,1h3m0,1h3m12,0h6m-21,1h3m12,0h6m-21,1h3m12,0h6m-21,1h3m15,0h3m6,0h3m-30,1h3m15,0h3m6,0h3m-30,1h3m15,0h3m6,0h3m-33,1h3m18,0h3m3,0h6m-33,1h3m18,0h3m3,0h6m-33,1h3m18,0h3m3,0h6m-33,1h3m15,0h3m3,0h3m3,0h3m-33,1h3m15,0h3m3,0h3m3,0h3m-33,1h3m15,0h3m3,0h3m3,0h3m-45,1h9m3,0h3m27,0h3m-45,1h9m3,0h3m27,0h3m-45,1h9m3,0h3m27,0h3m-42,1h3m3,0h3m21,0h3m6,0h3m-42,1h3m3,0h3m21,0h3m6,0h3m-42,1h3m3,0h3m21,0h3m6,0h3m-42,1h3m6,0h3m21,0h6m-39,1h3m6,0h3m21,0h6m-39,1h3m6,0h3m21,0h6m-36,1h3m3,0h3m15,0h6m-30,1h3m3,0h3m15,0h6m-30,1h3m3,0h3m15,0h6m-30,1h3m3,0h6m9,0h6m3,0h3m-33,1h3m3,0h6m9,0h6m3,0h3m-33,1h3m3,0h6m9,0h6m3,0h3m-36,1h3m3,0h3m3,0h3m6,0h3m12,0h3m-39,1h3m3,0h3m3,0h3m6,0h3m12,0h3m-39,1h3m3,0h3m3,0h3m6,0h3m12,0h3m-42,1h3m3,0h3m12,0h3m15,0h3m-42,1h3m3,0h3m12,0h3m15,0h3m-42,1h3m3,0h3m12,0h3m15,0h3m-42,1h6m3,0h12m15,0h6m-42,1h6m3,0h12m15,0h6m-42,1h6m3,0h12m15,0h6m-42,1h3m6,0h3m6,0h3m9,0h6m-36,1h3m6,0h3m6,0h3m9,0h6m-36,1h3m6,0h3m6,0h3m9,0h6m-24,1h3m18,0h3m-24,1h3m18,0h3m-24,1h3m18,0h3m-21,1h6m9,0h3m-18,1h6m9,0h3m-18,1h6m9,0h3m-9,1h6m-6,1h6m-6,1h6m-9,4h3m-3,1h3m-3,1h3" transform="translate(33.4858 -17.76267)"/>
    <path class="b" d="M74.62434,29.75687h6m9,0h3m-18,1h6m9,0h3m-18,1h6m9,0h3m-18,1h3m-3,1h3m-3,1h3m0,1h3m-3,1h3m-3,1h3m12,4h3m-3,1h3m-3,1h3m-3,1h3m-3,1h3m-3,1h3m-6,1h3m9,0h3m-15,1h3m9,0h3m-15,1h3m9,0h3m-3,1h3m-3,1h3m-3,1h3m-36,1h3m-3,1h3m-3,1h3m-3,1h3m-3,1h3m-3,1h3m0,1h3m-3,1h3m-3,1h3" transform="translate(33.4858 -17.76267)"/>
    <path class="c" d="M77.62434,32.75687h6m3,0h3m-12,1h6m3,0h3m-12,1h6m3,0h3m-9,1h3m-3,1h3m-3,1h3m-6,7h3m9,0h3m-15,1h3m9,0h3m-15,1h3m9,0h3m6,4h3m-3,1h3m-3,1h3m-3,1h6m-6,1h6m-6,1h6m-33,1h3m-3,1h3m-3,1h3m6,7h3m15,0h3m-21,1h3m15,0h3m-21,1h3m15,0h3m-36,1h3m12,0h3m15,0h3m-36,1h3m12,0h3m15,0h3m-36,1h3m12,0h3m15,0h3m-27,4h3m-3,1h3m-3,1h3m15,1h3m-3,1h3m-3,1h3" transform="translate(33.4858 -17.76267)"/>
    <path class="d" d="M92.62434,32.75687h6m-6,1h6m-6,1h6m-27,1h3m21,0h3m-27,1h3m21,0h3m-27,1h3m21,0h3m-30,1h3m3,0h3m-9,1h3m3,0h3m-9,1h3m3,0h3m-9,1h3m18,0h3m-24,1h3m18,0h3m-24,1h3m18,0h3m-21,1h3m6,0h6m-15,1h3m6,0h6m-15,1h3m6,0h6m-9,1h3m6,0h3m-12,1h3m6,0h3m-12,1h3m6,0h3m-12,1h3m6,0h12m-21,1h3m6,0h12m-21,1h3m6,0h12m-24,1h6m3,0h6m-15,1h6m3,0h6m-15,1h6m3,0h6m-9,1h3m3,0h3m-9,1h3m3,0h3m-9,1h3m3,0h3m0,7h6m-6,1h6m-6,1h6m-24,1h6m9,0h3m6,0h3m-27,1h6m9,0h3m6,0h3m-27,1h6m9,0h3m6,0h3m-30,1h3m15,0h3m6,0h3m-30,1h3m15,0h3m6,0h3m-30,1h3m15,0h3m6,0h3m-33,1h3m15,0h3m3,0h3m6,0h3m-36,1h3m15,0h3m3,0h3m6,0h3m-36,1h3m15,0h3m3,0h3m6,0h3m-36,1h3m15,0h6m12,0h3m-39,1h3m15,0h6m12,0h3m-39,1h3m15,0h6m12,0h3m-36,1h6m21,0h9m-36,1h6m21,0h9m-36,1h6m21,0h9m-27,1h3m-3,1h3m-3,1h3m0,1h3m-3,1h3m-3,1h3" transform="translate(33.4858 -17.76267)"/>
    <path class="e" d="M83.62434,35.75687h3m-3,1h3m-3,1h3m-3,19h3m3,0h3m3,0h3m-15,1h3m3,0h3m3,0h3m-15,1h3m3,0h3m3,0h3m-15,1h3m-3,1h3m-3,1h3m-15,1h3m12,0h3m-18,1h3m12,0h3m-18,1h3m12,0h3m-12,4h3m-3,1h3m-3,1h3m3,1h3m-3,1h3m-3,1h3m-3,7h3m-3,1h3m-3,1h3m-3,1h3m-3,1h3m-3,1h3" transform="translate(33.4858 -17.76267)"/>
    <path class="f" d="M86.62434,35.75687h3m-3,1h3m-3,1h3m-9,1h3m3,0h3m-9,1h3m3,0h3m-9,1h3m3,0h3m-9,1h3m3,0h3m-9,1h3m3,0h3m-9,1h3m3,0h3m-3,1h3m-3,1h3m-3,1h3m-9,7h3m-3,1h3m-3,1h3m-3,4h3m3,0h3m-9,1h3m3,0h3m-9,1h3m3,0h3m-3,25h3m-3,1h3m-3,1h3m-9,1h3m3,0h3m-9,1h3m3,0h3m-9,1h3m3,0h3" transform="translate(33.4858 -17.76267)"/>
    <path class="g" d="M89.62434,35.75687h6m-6,1h6m-6,1h6m-24,1h3m15,0h3m-21,1h3m15,0h3m-21,1h3m15,0h3m-18,1h3m-3,1h3m-3,1h3m3,4h3m-3,1h3m-3,1h3m-3,1h6m-6,1h6m-6,1h6m3,1h3m-3,1h3m-3,1h3m-15,1h3m-3,1h3m-3,1h3m-3,1h3m-3,1h3m-3,1h3m9,7h3m-3,1h3m-3,1h3m-3,1h6m-6,1h6m-6,1h6m-27,1h3m15,0h3m-21,1h3m15,0h3m-21,1h3m15,0h3m-18,1h3m24,0h3m-30,1h3m24,0h3m-30,1h3m24,0h3m-21,4h3m-3,1h3m-3,1h3" transform="translate(33.4858 -17.76267)"/>
    <path class="h" d="M83.62434,38.75687h3m-3,1h3m-3,1h3m-3,1h3m-3,1h3m-3,1h3m6,13h3m-3,1h3m-3,1h3m-6,1h3m-3,1h3m-3,1h3m-18,4h3m-3,1h3m-3,1h3m6,19h3m-3,1h3m-3,1h3" transform="translate(33.4858 -17.76267)"/>
    <path class="i" d="M71.62434,41.75687h3m-3,1h3m-3,1h3m9,4h3m-3,1h3m-3,1h3m6,4h3m-3,1h3m-3,1h3m-3,13h3m-3,1h3m-3,1h3m-27,7h3m-3,1h3m-3,1h3" transform="translate(33.4858 -17.76267)"/>
    <path class="j" d="M80.62434,62.75687h6m9,0h3m-18,1h6m9,0h3m-18,1h6m9,0h3m-30,1h3m12,0h3m9,0h3m-30,1h3m12,0h3m9,0h3m-30,1h3m12,0h3m9,0h3m-21,7h3m-3,1h3m-3,1h3m-3,1h6m6,0h3m-15,1h6m6,0h3m-15,1h6m6,0h3m-6,1h6m-6,1h6m-6,1h6" transform="translate(33.4858 -17.76267)"/>
  </g>
  <g>
    <path class="a" d="M18.74315,26.55209h12m9,0h6m-27,1h12m9,0h6m-27,1h12m9,0h6m-24,1h3m6,0h3m3,0h3m3,0h3m-24,1h3m6,0h3m3,0h3m3,0h3m-24,1h3m6,0h3m3,0h3m3,0h3m-24,1h3m9,0h3m3,0h3m-21,1h3m9,0h3m3,0h3m-21,1h3m9,0h3m3,0h3m-18,1h3m-3,1h3m-3,1h3m0,1h3m12,0h6m-21,1h3m12,0h6m-21,1h3m12,0h6m-21,1h3m15,0h3m6,0h3m-30,1h3m15,0h3m6,0h3m-30,1h3m15,0h3m6,0h3m-33,1h3m18,0h3m3,0h6m-33,1h3m18,0h3m3,0h6m-33,1h3m18,0h3m3,0h6m-33,1h3m15,0h3m3,0h3m3,0h3m-33,1h3m15,0h3m3,0h3m3,0h3m-33,1h3m15,0h3m3,0h3m3,0h3m-45,1h9m3,0h3m27,0h3m-45,1h9m3,0h3m27,0h3m-45,1h9m3,0h3m27,0h3m-42,1h3m3,0h3m21,0h3m6,0h3m-42,1h3m3,0h3m21,0h3m6,0h3m-42,1h3m3,0h3m21,0h3m6,0h3m-42,1h3m6,0h3m21,0h6m-39,1h3m6,0h3m21,0h6m-39,1h3m6,0h3m21,0h6m-36,1h3m3,0h3m15,0h6m-30,1h3m3,0h3m15,0h6m-30,1h3m3,0h3m15,0h6m-30,1h3m3,0h6m9,0h6m3,0h3m-33,1h3m3,0h6m9,0h6m3,0h3m-33,1h3m3,0h6m9,0h6m3,0h3m-36,1h3m3,0h3m3,0h3m6,0h3m12,0h3m-39,1h3m3,0h3m3,0h3m6,0h3m12,0h3m-39,1h3m3,0h3m3,0h3m6,0h3m12,0h3m-42,1h3m3,0h3m12,0h3m15,0h3m-42,1h3m3,0h3m12,0h3m15,0h3m-42,1h3m3,0h3m12,0h3m15,0h3m-42,1h6m3,0h12m15,0h6m-42,1h6m3,0h12m15,0h6m-42,1h6m3,0h12m15,0h6m-42,1h3m6,0h3m6,0h3m9,0h6m-36,1h3m6,0h3m6,0h3m9,0h6m-36,1h3m6,0h3m6,0h3m9,0h6m-24,1h3m18,0h3m-24,1h3m18,0h3m-24,1h3m18,0h3m-21,1h6m9,0h3m-18,1h6m9,0h3m-18,1h6m9,0h3m-9,1h6m-6,1h6m-6,1h6m-9,4h3m-3,1h3m-3,1h3" transform="translate(33.4858 -17.76267)"/>
    <path class="b" d="M24.74315,29.55209h6m9,0h3m-18,1h6m9,0h3m-18,1h6m9,0h3m-18,1h3m-3,1h3m-3,1h3m0,1h3m-3,1h3m-3,1h3m12,4h3m-3,1h3m-3,1h3m-3,1h3m-3,1h3m-3,1h3m-6,1h3m9,0h3m-15,1h3m9,0h3m-15,1h3m9,0h3m-3,1h3m-3,1h3m-3,1h3m-36,1h3m-3,1h3m-3,1h3m-3,1h3m-3,1h3m-3,1h3m0,1h3m-3,1h3m-3,1h3" transform="translate(33.4858 -17.76267)"/>
    <path class="c" d="M27.74315,32.55209h6m3,0h3m-12,1h6m3,0h3m-12,1h6m3,0h3m-9,1h3m-3,1h3m-3,1h3m-6,7h3m9,0h3m-15,1h3m9,0h3m-15,1h3m9,0h3m6,4h3m-3,1h3m-3,1h3m-3,1h6m-6,1h6m-6,1h6m-33,1h3m-3,1h3m-3,1h3m6,7h3m15,0h3m-21,1h3m15,0h3m-21,1h3m15,0h3m-36,1h3m12,0h3m15,0h3m-36,1h3m12,0h3m15,0h3m-36,1h3m12,0h3m15,0h3m-27,4h3m-3,1h3m-3,1h3m15,1h3m-3,1h3m-3,1h3" transform="translate(33.4858 -17.76267)"/>
    <path class="d" d="M42.74315,32.55209h6m-6,1h6m-6,1h6m-27,1h3m21,0h3m-27,1h3m21,0h3m-27,1h3m21,0h3m-30,1h3m3,0h3m-9,1h3m3,0h3m-9,1h3m3,0h3m-9,1h3m18,0h3m-24,1h3m18,0h3m-24,1h3m18,0h3m-21,1h3m6,0h6m-15,1h3m6,0h6m-15,1h3m6,0h6m-9,1h3m6,0h3m-12,1h3m6,0h3m-12,1h3m6,0h3m-12,1h3m6,0h12m-21,1h3m6,0h12m-21,1h3m6,0h12m-24,1h6m3,0h6m-15,1h6m3,0h6m-15,1h6m3,0h6m-9,1h3m3,0h3m-9,1h3m3,0h3m-9,1h3m3,0h3m0,7h6m-6,1h6m-6,1h6m-24,1h6m9,0h3m6,0h3m-27,1h6m9,0h3m6,0h3m-27,1h6m9,0h3m6,0h3m-30,1h3m15,0h3m6,0h3m-30,1h3m15,0h3m6,0h3m-30,1h3m15,0h3m6,0h3m-33,1h3m15,0h3m3,0h3m6,0h3m-36,1h3m15,0h3m3,0h3m6,0h3m-36,1h3m15,0h3m3,0h3m6,0h3m-36,1h3m15,0h6m12,0h3m-39,1h3m15,0h6m12,0h3m-39,1h3m15,0h6m12,0h3m-36,1h6m21,0h9m-36,1h6m21,0h9m-36,1h6m21,0h9m-27,1h3m-3,1h3m-3,1h3m0,1h3m-3,1h3m-3,1h3" transform="translate(33.4858 -17.76267)"/>
    <path class="e" d="M33.74315,35.55209h3m-3,1h3m-3,1h3m-3,19h3m3,0h3m3,0h3m-15,1h3m3,0h3m3,0h3m-15,1h3m3,0h3m3,0h3m-15,1h3m-3,1h3m-3,1h3m-15,1h3m12,0h3m-18,1h3m12,0h3m-18,1h3m12,0h3m-12,4h3m-3,1h3m-3,1h3m3,1h3m-3,1h3m-3,1h3m-3,7h3m-3,1h3m-3,1h3m-3,1h3m-3,1h3m-3,1h3" transform="translate(33.4858 -17.76267)"/>
    <path class="f" d="M36.74315,35.55209h3m-3,1h3m-3,1h3m-9,1h3m3,0h3m-9,1h3m3,0h3m-9,1h3m3,0h3m-9,1h3m3,0h3m-9,1h3m3,0h3m-9,1h3m3,0h3m-3,1h3m-3,1h3m-3,1h3m-9,7h3m-3,1h3m-3,1h3m-3,4h3m3,0h3m-9,1h3m3,0h3m-9,1h3m3,0h3m-3,25h3m-3,1h3m-3,1h3m-9,1h3m3,0h3m-9,1h3m3,0h3m-9,1h3m3,0h3" transform="translate(33.4858 -17.76267)"/>
    <path class="g" d="M39.74315,35.55209h6m-6,1h6m-6,1h6m-24,1h3m15,0h3m-21,1h3m15,0h3m-21,1h3m15,0h3m-18,1h3m-3,1h3m-3,1h3m3,4h3m-3,1h3m-3,1h3m-3,1h6m-6,1h6m-6,1h6m3,1h3m-3,1h3m-3,1h3m-15,1h3m-3,1h3m-3,1h3m-3,1h3m-3,1h3m-3,1h3m9,7h3m-3,1h3m-3,1h3m-3,1h6m-6,1h6m-6,1h6m-27,1h3m15,0h3m-21,1h3m15,0h3m-21,1h3m15,0h3m-18,1h3m24,0h3m-30,1h3m24,0h3m-30,1h3m24,0h3m-21,4h3m-3,1h3m-3,1h3" transform="translate(33.4858 -17.76267)"/>
    <path class="h" d="M33.74315,38.55209h3m-3,1h3m-3,1h3m-3,1h3m-3,1h3m-3,1h3m6,13h3m-3,1h3m-3,1h3m-6,1h3m-3,1h3m-3,1h3m-18,4h3m-3,1h3m-3,1h3m6,19h3m-3,1h3m-3,1h3" transform="translate(33.4858 -17.76267)"/>
    <path class="i" d="M21.74315,41.55209h3m-3,1h3m-3,1h3m9,4h3m-3,1h3m-3,1h3m6,4h3m-3,1h3m-3,1h3m-3,13h3m-3,1h3m-3,1h3m-27,7h3m-3,1h3m-3,1h3" transform="translate(33.4858 -17.76267)"/>
    <path class="j" d="M30.74315,62.55209h6m9,0h3m-18,1h6m9,0h3m-18,1h6m9,0h3m-30,1h3m12,0h3m9,0h3m-30,1h3m12,0h3m9,0h3m-30,1h3m12,0h3m9,0h3m-21,7h3m-3,1h3m-3,1h3m-3,1h6m6,0h3m-15,1h6m6,0h3m-15,1h6m6,0h3m-6,1h6m-6,1h6m-6,1h6" transform="translate(33.4858 -17.76267)"/>
  </g>
  <g>
    <path class="a" d="M118.08416,27.25687h12m9,0h6m-27,1h12m9,0h6m-27,1h12m9,0h6m-24,1h3m6,0h3m3,0h3m3,0h3m-24,1h3m6,0h3m3,0h3m3,0h3m-24,1h3m6,0h3m3,0h3m3,0h3m-24,1h3m9,0h3m3,0h3m-21,1h3m9,0h3m3,0h3m-21,1h3m9,0h3m3,0h3m-18,1h3m-3,1h3m-3,1h3m0,1h3m12,0h6m-21,1h3m12,0h6m-21,1h3m12,0h6m-21,1h3m15,0h3m6,0h3m-30,1h3m15,0h3m6,0h3m-30,1h3m15,0h3m6,0h3m-33,1h3m18,0h3m3,0h6m-33,1h3m18,0h3m3,0h6m-33,1h3m18,0h3m3,0h6m-33,1h3m15,0h3m3,0h3m3,0h3m-33,1h3m15,0h3m3,0h3m3,0h3m-33,1h3m15,0h3m3,0h3m3,0h3m-45,1h9m3,0h3m27,0h3m-45,1h9m3,0h3m27,0h3m-45,1h9m3,0h3m27,0h3m-42,1h3m3,0h3m21,0h3m6,0h3m-42,1h3m3,0h3m21,0h3m6,0h3m-42,1h3m3,0h3m21,0h3m6,0h3m-42,1h3m6,0h3m21,0h6m-39,1h3m6,0h3m21,0h6m-39,1h3m6,0h3m21,0h6m-36,1h3m3,0h3m15,0h6m-30,1h3m3,0h3m15,0h6m-30,1h3m3,0h3m15,0h6m-30,1h3m3,0h6m9,0h6m3,0h3m-33,1h3m3,0h6m9,0h6m3,0h3m-33,1h3m3,0h6m9,0h6m3,0h3m-36,1h3m3,0h3m3,0h3m6,0h3m12,0h3m-39,1h3m3,0h3m3,0h3m6,0h3m12,0h3m-39,1h3m3,0h3m3,0h3m6,0h3m12,0h3m-42,1h3m3,0h3m12,0h3m15,0h3m-42,1h3m3,0h3m12,0h3m15,0h3m-42,1h3m3,0h3m12,0h3m15,0h3m-42,1h6m3,0h12m15,0h6m-42,1h6m3,0h12m15,0h6m-42,1h6m3,0h12m15,0h6m-42,1h3m6,0h3m6,0h3m9,0h6m-36,1h3m6,0h3m6,0h3m9,0h6m-36,1h3m6,0h3m6,0h3m9,0h6m-24,1h3m18,0h3m-24,1h3m18,0h3m-24,1h3m18,0h3m-21,1h6m9,0h3m-18,1h6m9,0h3m-18,1h6m9,0h3m-9,1h6m-6,1h6m-6,1h6m-9,4h3m-3,1h3m-3,1h3" transform="translate(33.4858 -17.76267)"/>
    <path class="b" d="M124.08416,30.25687h6m9,0h3m-18,1h6m9,0h3m-18,1h6m9,0h3m-18,1h3m-3,1h3m-3,1h3m0,1h3m-3,1h3m-3,1h3m12,4h3m-3,1h3m-3,1h3m-3,1h3m-3,1h3m-3,1h3m-6,1h3m9,0h3m-15,1h3m9,0h3m-15,1h3m9,0h3m-3,1h3m-3,1h3m-3,1h3m-36,1h3m-3,1h3m-3,1h3m-3,1h3m-3,1h3m-3,1h3m0,1h3m-3,1h3m-3,1h3" transform="translate(33.4858 -17.76267)"/>
    <path class="c" d="M127.08416,33.25687h6m3,0h3m-12,1h6m3,0h3m-12,1h6m3,0h3m-9,1h3m-3,1h3m-3,1h3m-6,7h3m9,0h3m-15,1h3m9,0h3m-15,1h3m9,0h3m6,4h3m-3,1h3m-3,1h3m-3,1h6m-6,1h6m-6,1h6m-33,1h3m-3,1h3m-3,1h3m6,7h3m15,0h3m-21,1h3m15,0h3m-21,1h3m15,0h3m-36,1h3m12,0h3m15,0h3m-36,1h3m12,0h3m15,0h3m-36,1h3m12,0h3m15,0h3m-27,4h3m-3,1h3m-3,1h3m15,1h3m-3,1h3m-3,1h3" transform="translate(33.4858 -17.76267)"/>
    <path class="d" d="M142.08416,33.25687h6m-6,1h6m-6,1h6m-27,1h3m21,0h3m-27,1h3m21,0h3m-27,1h3m21,0h3m-30,1h3m3,0h3m-9,1h3m3,0h3m-9,1h3m3,0h3m-9,1h3m18,0h3m-24,1h3m18,0h3m-24,1h3m18,0h3m-21,1h3m6,0h6m-15,1h3m6,0h6m-15,1h3m6,0h6m-9,1h3m6,0h3m-12,1h3m6,0h3m-12,1h3m6,0h3m-12,1h3m6,0h12m-21,1h3m6,0h12m-21,1h3m6,0h12m-24,1h6m3,0h6m-15,1h6m3,0h6m-15,1h6m3,0h6m-9,1h3m3,0h3m-9,1h3m3,0h3m-9,1h3m3,0h3m0,7h6m-6,1h6m-6,1h6m-24,1h6m9,0h3m6,0h3m-27,1h6m9,0h3m6,0h3m-27,1h6m9,0h3m6,0h3m-30,1h3m15,0h3m6,0h3m-30,1h3m15,0h3m6,0h3m-30,1h3m15,0h3m6,0h3m-33,1h3m15,0h3m3,0h3m6,0h3m-36,1h3m15,0h3m3,0h3m6,0h3m-36,1h3m15,0h3m3,0h3m6,0h3m-36,1h3m15,0h6m12,0h3m-39,1h3m15,0h6m12,0h3m-39,1h3m15,0h6m12,0h3m-36,1h6m21,0h9m-36,1h6m21,0h9m-36,1h6m21,0h9m-27,1h3m-3,1h3m-3,1h3m0,1h3m-3,1h3m-3,1h3" transform="translate(33.4858 -17.76267)"/>
    <path class="e" d="M133.08416,36.25687h3m-3,1h3m-3,1h3m-3,19h3m3,0h3m3,0h3m-15,1h3m3,0h3m3,0h3m-15,1h3m3,0h3m3,0h3m-15,1h3m-3,1h3m-3,1h3m-15,1h3m12,0h3m-18,1h3m12,0h3m-18,1h3m12,0h3m-12,4h3m-3,1h3m-3,1h3m3,1h3m-3,1h3m-3,1h3m-3,7h3m-3,1h3m-3,1h3m-3,1h3m-3,1h3m-3,1h3" transform="translate(33.4858 -17.76267)"/>
    <path class="f" d="M136.08416,36.25687h3m-3,1h3m-3,1h3m-9,1h3m3,0h3m-9,1h3m3,0h3m-9,1h3m3,0h3m-9,1h3m3,0h3m-9,1h3m3,0h3m-9,1h3m3,0h3m-3,1h3m-3,1h3m-3,1h3m-9,7h3m-3,1h3m-3,1h3m-3,4h3m3,0h3m-9,1h3m3,0h3m-9,1h3m3,0h3m-3,25h3m-3,1h3m-3,1h3m-9,1h3m3,0h3m-9,1h3m3,0h3m-9,1h3m3,0h3" transform="translate(33.4858 -17.76267)"/>
    <path class="g" d="M139.08416,36.25687h6m-6,1h6m-6,1h6m-24,1h3m15,0h3m-21,1h3m15,0h3m-21,1h3m15,0h3m-18,1h3m-3,1h3m-3,1h3m3,4h3m-3,1h3m-3,1h3m-3,1h6m-6,1h6m-6,1h6m3,1h3m-3,1h3m-3,1h3m-15,1h3m-3,1h3m-3,1h3m-3,1h3m-3,1h3m-3,1h3m9,7h3m-3,1h3m-3,1h3m-3,1h6m-6,1h6m-6,1h6m-27,1h3m15,0h3m-21,1h3m15,0h3m-21,1h3m15,0h3m-18,1h3m24,0h3m-30,1h3m24,0h3m-30,1h3m24,0h3m-21,4h3m-3,1h3m-3,1h3" transform="translate(33.4858 -17.76267)"/>
    <path class="h" d="M133.08416,39.25687h3m-3,1h3m-3,1h3m-3,1h3m-3,1h3m-3,1h3m6,13h3m-3,1h3m-3,1h3m-6,1h3m-3,1h3m-3,1h3m-18,4h3m-3,1h3m-3,1h3m6,19h3m-3,1h3m-3,1h3" transform="translate(33.4858 -17.76267)"/>
    <path class="i" d="M121.08416,42.25687h3m-3,1h3m-3,1h3m9,4h3m-3,1h3m-3,1h3m6,4h3m-3,1h3m-3,1h3m-3,13h3m-3,1h3m-3,1h3m-27,7h3m-3,1h3m-3,1h3" transform="translate(33.4858 -17.76267)"/>
    <path class="j" d="M130.08416,63.25687h6m9,0h3m-18,1h6m9,0h3m-18,1h6m9,0h3m-30,1h3m12,0h3m9,0h3m-30,1h3m12,0h3m9,0h3m-30,1h3m12,0h3m9,0h3m-21,7h3m-3,1h3m-3,1h3m-3,1h6m6,0h3m-15,1h6m6,0h3m-15,1h6m6,0h3m-6,1h6m-6,1h6m-6,1h6" transform="translate(33.4858 -17.76267)"/>
  </g>
  <g>
    <path class="k" d="M-11.3435,18.19569l2.59808,1.5m-3.09808-.634,2.59808,1.5m-3.09808-.634,2.59808,1.5m8.3923,9.4641,2.59808,1.5m7.79423,4.5,2.59807,1.5m-13.49038-6.634,2.59808,1.5m7.79423,4.5,2.59807,1.5m-13.49038-6.634,2.59808,1.5m7.79423,4.5,2.59807,1.5M2.343,36.48991l5.19616,3M1.843,37.35594l5.19616,3M1.343,38.222l5.19616,3M-19.94157,27.088l2.59807,1.5m28.57884,16.5,2.59808,1.5m-34.275-18.634,2.59807,1.5m28.57884,16.5,2.59808,1.5m-34.275-18.634,2.59807,1.5m28.57884,16.5,2.59808,1.5m-34.275-18.634,2.59807,1.5m-3.09807-.634,2.59807,1.5m-3.09807-.634,2.59807,1.5m-3.09807-.634,2.59807,1.5m-3.09807-.634,2.59807,1.5m-3.09807-.634,2.59807,1.5m-3.09807-.634,2.59807,1.5m-3.09807-.634,2.59807,1.5m-3.09807-.634,2.59807,1.5" transform="translate(33.4858 -17.76267)"/>
    <path class="l" d="M-8.74542,19.69569l12.99038,7.5m-13.49038-6.634,12.99038,7.5m-13.49038-6.634,12.99038,7.5m-.5.866,2.59807,1.5m7.79423,4.5,2.59808,1.5M2.245,30.65979l2.59807,1.5m7.79423,4.5,2.59808,1.5M1.745,31.52581l2.59807,1.5m7.79423,4.5,2.59808,1.5M3.843,33.89184l2.59808,1.5m7.79423,4.5,2.59808,1.5M3.343,34.75786l2.59808,1.5m7.79423,4.5,2.59808,1.5M2.843,35.62389l2.59808,1.5m7.79423,4.5,2.59808,1.5m-3.09808-.634,2.59808,1.5m-3.09808-.634,2.59808,1.5m-3.09808-.634,2.59808,1.5M-27.7358,22.588l2.59807,1.5m2.59808,1.5,2.59808,1.5m2.59807,1.5,5.19615,3M.843,39.088l2.59808,1.5M-28.2358,23.454l2.59807,1.5m2.59808,1.5,2.59808,1.5m2.59807,1.5,5.19615,3M.343,39.954l2.59808,1.5M-28.7358,24.32l2.59807,1.5m2.59808,1.5,2.59808,1.5m2.59807,1.5,5.19615,3M-.157,40.82l2.59808,1.5m-31.67691-17.134,2.59807,1.5m7.79423,4.5,5.19615,3m12.99038,7.5,5.19616,3m2.59807,1.5,2.59808,1.5m-39.47114-21.634,2.59807,1.5m7.79423,4.5,5.19615,3m12.99038,7.5,5.19616,3m2.59807,1.5,2.59808,1.5m-39.47114-21.634,2.59807,1.5m7.79423,4.5,5.19615,3m12.99038,7.5,5.19616,3m2.59807,1.5,2.59808,1.5m-39.47114-21.634,2.59807,1.5m10.39231,6,5.19615,3m10.3923,6,2.59808,1.5m-31.67691-17.134,2.59807,1.5m10.39231,6,5.19615,3m10.3923,6,2.59808,1.5m-31.67691-17.134,2.59807,1.5m10.39231,6,5.19615,3m10.3923,6,2.59808,1.5m-26.48076-14.134,2.59808,1.5m2.59807,1.5,2.59808,1.5m-8.29423-3.634,2.59808,1.5m2.59807,1.5,2.59808,1.5m-8.29423-3.634,2.59808,1.5m2.59807,1.5,2.59808,1.5m-3.09808-.634,5.19615,3m10.39231,6,2.59807,1.5m-18.68653-9.634,5.19615,3m10.39231,6,2.59807,1.5m-18.68653-9.634,5.19615,3m10.39231,6,2.59807,1.5m-16.08845-8.134,12.99038,7.5m-13.49038-6.634,12.99038,7.5m-13.49038-6.634,12.99038,7.5" transform="translate(33.4858 -17.76267)"/>
    <path class="m" d="M-15.44157,19.29376l2.59807,1.5m-3.09807-.634,2.59807,1.5m-3.09807-.634,2.59807,1.5m-3.09807-.634,2.59807,1.5m2.59808,1.5,2.59807,1.5m5.19616,3,2.59807,1.5m-16.08845-8.134,2.59807,1.5m2.59808,1.5,2.59807,1.5m5.19616,3,2.59807,1.5m-16.08845-8.134,2.59807,1.5m2.59808,1.5,2.59807,1.5m5.19616,3,2.59807,1.5m-21.28461-11.134,7.79423,4.5m-8.29423-3.634,7.79423,4.5m-8.29423-3.634,7.79423,4.5M4.53919,44.68607l2.59807,1.5m2.59808,1.5,2.59808,1.5m-8.29423-3.634,2.59807,1.5m2.59808,1.5,2.59808,1.5m-8.29423-3.634,2.59807,1.5m2.59808,1.5,2.59808,1.5M.44111,45.78414l2.59808,1.5m2.59807,1.5,2.59808,1.5m-8.29423-3.634,2.59808,1.5m2.59807,1.5,2.59808,1.5m-8.29423-3.634,2.59808,1.5m2.59807,1.5,2.59808,1.5m-39.47114-21.634,2.59807,1.5m25.98076,15,2.59808,1.5m-31.67691-17.134,2.59807,1.5m25.98076,15,2.59808,1.5m-31.67691-17.134,2.59807,1.5m25.98076,15,2.59808,1.5m-29.07884-15.634,7.79423,4.5m18.18653,10.5,2.59808,1.5m-29.07884-15.634,7.79423,4.5m18.18653,10.5,2.59808,1.5m-29.07884-15.634,7.79423,4.5m18.18653,10.5,2.59808,1.5m-21.28461-11.134,2.59808,1.5m12.99038,7.5,2.59807,1.5m-18.68653-9.634,2.59808,1.5m12.99038,7.5,2.59807,1.5m-18.68653-9.634,2.59808,1.5m12.99038,7.5,2.59807,1.5m-16.08845-8.134,12.99038,7.5m-13.49038-6.634,12.99038,7.5m-13.49038-6.634,12.99038,7.5" transform="translate(33.4858 -17.76267)"/>
    <path class="n" d="M-12.8435,20.79376l2.59808,1.5m-3.09808-.634,2.59808,1.5m-3.09808-.634,2.59808,1.5m-4.59808,1.9641,2.59808,1.5m12.99038,7.5,2.59807,1.5m5.19616,3,2.59807,1.5m-26.48076-14.134,2.59808,1.5m12.99038,7.5,2.59807,1.5m5.19616,3,2.59807,1.5M-16.8435,27.722l2.59808,1.5m12.99038,7.5,2.59807,1.5m5.19616,3,2.59807,1.5M-12.14735,31.588.843,39.088m2.59808,1.5,7.79423,4.5M-12.64735,32.454.343,39.954m2.59808,1.5,7.79423,4.5M-13.14735,33.32-.157,40.82m2.59808,1.5,7.79423,4.5m-23.88269-12.634,12.99038,7.5m-13.49038-6.634,12.99038,7.5m-13.49038-6.634,12.99038,7.5m-26.48076-14.134,2.59808,1.5m12.99038,7.5,7.79423,4.5m-23.88269-12.634,2.59808,1.5m12.99038,7.5,7.79423,4.5m-23.88269-12.634,2.59808,1.5m12.99038,7.5,7.79423,4.5m-23.88269-12.634,2.59808,1.5m20.78461,12,2.59807,1.5m-26.48076-14.134,2.59808,1.5m20.78461,12,2.59807,1.5m-26.48076-14.134,2.59808,1.5m20.78461,12,2.59807,1.5m-13.49038-6.634,10.39231,6m-10.89231-5.134,10.39231,6m-10.89231-5.134,10.39231,6" transform="translate(33.4858 -17.76267)"/>
    <path class="o" d="M-10.24542,22.29376l2.59807,1.5m-3.09807-.634,2.59807,1.5m-3.09807-.634,2.59807,1.5m-5.69615-2.134,2.59808,1.5m-3.09808-.634,2.59808,1.5m-3.09808-.634,2.59808,1.5m-.5.866,5.19615,3m5.19615,3,2.59808,1.5m10.3923,6,2.59808,1.5m-26.48076-14.134,5.19615,3m5.19615,3,2.59808,1.5m10.3923,6,2.59808,1.5M-14.24542,29.222l5.19615,3m5.19615,3,2.59808,1.5m10.3923,6,2.59808,1.5m-38.37307-17.5359,2.59808,1.5m-3.09808-.634,2.59808,1.5m-3.09808-.634,2.59808,1.5" transform="translate(33.4858 -17.76267)"/>
    <path class="p" d="M-7.64735,23.79376l10.39231,6m-10.89231-5.134,10.39231,6m-10.89231-5.134,10.39231,6m-.5.866,2.59807,1.5m7.79423,4.5,2.59808,1.5M.745,33.25786l2.59807,1.5m7.79423,4.5,2.59808,1.5M.245,34.12389l2.59807,1.5m7.79423,4.5,2.59808,1.5m-21.28461-11.134,5.19615,3m-5.69615-2.134,5.19615,3m-5.69615-2.134,5.19615,3M-25.13773,24.088l2.59808,1.5m-3.09808-.634,2.59808,1.5m-3.09808-.634,2.59808,1.5" transform="translate(33.4858 -17.76267)"/>
    <path class="q" d="M-9.14735,26.39184l5.19616,3m-5.69616-2.134,5.19616,3m-5.69616-2.134,5.19616,3" transform="translate(33.4858 -17.76267)"/>
    <path class="r" d="M-20.3435,33.78414l2.59808,1.5m-3.09808-.634,2.59808,1.5m-3.09808-.634,2.59808,1.5m-.5.866,2.59807,1.5m-3.09807-.634,2.59807,1.5m-3.09807-.634,2.59807,1.5" transform="translate(33.4858 -17.76267)"/>
    <path class="s" d="M-4.755,42.78414l2.59807,1.5m-3.09807-.634,2.59807,1.5m-3.09807-.634,2.59807,1.5m-10.8923-5.134,2.59808,1.5m-3.09808-.634,2.59808,1.5m-3.09808-.634,2.59808,1.5" transform="translate(33.4858 -17.76267)"/>
    <path class="t" d="M-16.64735,39.38222l2.59808,1.5m-3.09808-.634,2.59808,1.5m-3.09808-.634,2.59808,1.5" transform="translate(33.4858 -17.76267)"/>
    <path class="u" d="M-11.45119,42.38222l5.19615,3m-5.69615-2.134,5.19615,3m-5.69615-2.134,5.19615,3" transform="translate(33.4858 -17.76267)"/>
  </g>
</svg>
